<svg aria-hidden="true" style="position: absolute; width: 0; height: 0; overflow: hidden;" version="1.1" xmlns="http://www.w3.org/2000/svg" xmlns:xlink="http://www.w3.org/1999/xlink">
<defs>
<symbol id="About" viewBox="0 0 42 32">
<path d="M35.713 0.782h-29.825c-3.246 0-5.887 2.641-5.887 5.888v18.66c0 3.247 2.641 5.888 5.887 5.888h29.825c3.246 0 5.887-2.641 5.887-5.888v-18.66c0-3.247-2.641-5.888-5.887-5.888zM15.097 10.149l-6.194 6.194 5.508 5.508c0.476 0.476 0.476 1.248 0 1.723s-1.247 0.476-1.723 0l-6.37-6.37c-0.476-0.476-0.476-1.247 0-1.723l7.055-7.055c0.476-0.476 1.248-0.476 1.724 0s0.475 1.247 0 1.723zM25.15 7.282l-6.445 18.248c-0.224 0.635-0.921 0.968-1.555 0.744s-0.968-0.921-0.743-1.555l6.445-18.248c0.224-0.635 0.92-0.968 1.555-0.743s0.968 0.921 0.743 1.555zM35.282 16.519l-7.055 7.055c-0.476 0.476-1.248 0.476-1.724 0s-0.475-1.247 0-1.723l6.194-6.194-5.508-5.508c-0.476-0.476-0.476-1.248 0-1.723s1.247-0.476 1.723 0l6.37 6.37c0.476 0.476 0.476 1.247 0 1.723z"></path>
</symbol>
<symbol id="back" viewBox="0 0 20 32">
<path d="M6.918 16.007l11.971-11.972c0.33-0.329 0.511-0.769 0.511-1.237s-0.181-0.908-0.511-1.238l-1.049-1.048c-0.329-0.33-0.769-0.511-1.238-0.511s-0.908 0.182-1.238 0.511l-14.254 14.253c-0.331 0.33-0.512 0.772-0.51 1.241-0.001 0.471 0.179 0.912 0.51 1.243l14.24 14.24c0.329 0.33 0.769 0.511 1.238 0.511s0.908-0.182 1.238-0.511l1.049-1.049c0.682-0.682 0.682-1.793 0-2.475l-11.958-11.958z"></path>
</symbol>
<symbol id="Camera" viewBox="0 0 42 32">
<path d="M36.845 5.726h-4.11l-2.269-3.425c-0.856-1.284-2.354-2.055-3.896-2.055h-9.418c-1.541 0-3.039 0.771-3.896 2.055l-2.269 3.425h-4.11c-2.611 0-4.709 2.098-4.709 4.709v16.61c0 2.611 2.098 4.709 4.709 4.709h29.967c2.611 0 4.709-2.098 4.709-4.709v-16.61c0-2.611-2.098-4.709-4.709-4.709zM21.861 27.901c-5.865 0-10.617-4.752-10.617-10.617s4.752-10.574 10.617-10.574c5.865 0 10.617 4.752 10.617 10.617 0 5.822-4.752 10.574-10.617 10.574zM36.245 12.361c-0.043 0-0.086 0-0.171 0h-1.712c-0.771-0.043-1.37-0.685-1.327-1.456 0.043-0.728 0.599-1.284 1.327-1.327h1.712c0.771-0.043 1.413 0.557 1.456 1.327s-0.514 1.413-1.284 1.456z"></path>
<path d="M21.861 11.419c-3.253 0-5.908 2.654-5.908 5.908s2.654 5.865 5.908 5.865c3.253 0 5.908-2.654 5.908-5.908s-2.654-5.865-5.908-5.865z"></path>
</symbol>
<symbol id="cancel" viewBox="0 0 32 32">
<path d="M17.875 16.009l13.717-13.717c0.529-0.511 0.544-1.355 0.033-1.884s-1.355-0.544-1.884-0.033c-0.011 0.011-0.022 0.022-0.033 0.033l-13.717 13.717-13.717-13.717c-0.529-0.511-1.373-0.497-1.884 0.033-0.499 0.516-0.499 1.335 0 1.852l13.717 13.717-13.717 13.717c-0.52 0.52-0.52 1.364 0 1.884s1.364 0.52 1.884 0l13.717-13.717 13.717 13.717c0.529 0.511 1.373 0.497 1.884-0.033 0.499-0.516 0.499-1.335 0-1.852l-13.717-13.717z"></path>
</symbol>
<symbol id="Checked" viewBox="0 0 38 32">
<path d="M14.704 30.345c-0.367 0.369-0.867 0.574-1.386 0.574s-1.020-0.206-1.386-0.574l-11.070-11.072c-1.149-1.149-1.149-3.012 0-4.158l1.386-1.386c1.149-1.149 3.010-1.149 4.159 0l6.911 6.912 18.675-18.676c1.149-1.149 3.012-1.149 4.159 0l1.386 1.386c1.149 1.149 1.149 3.011 0 4.158l-22.834 22.836z"></path>
</symbol>
<symbol id="close" viewBox="0 0 35 32">
<path d="M22.613 16.001l9.899-9.9c1.094-1.094 1.094-2.867 0-3.959l-1.32-1.32c-1.094-1.094-2.867-1.094-3.959 0l-9.899 9.899-9.9-9.901c-1.094-1.094-2.867-1.094-3.959 0l-1.322 1.32c-1.094 1.094-1.094 2.867 0 3.96l9.901 9.901-9.899 9.899c-1.094 1.094-1.094 2.867 0 3.959l1.32 1.32c1.094 1.094 2.867 1.094 3.959 0l9.9-9.899 9.899 9.899c1.094 1.094 2.867 1.094 3.959 0l1.32-1.32c1.094-1.094 1.094-2.867 0-3.959l-9.899-9.899z"></path>
</symbol>
<symbol id="Close2" viewBox="0 0 35 32">
<path d="M22.613 16.001l9.899-9.9c1.094-1.094 1.094-2.867 0-3.959l-1.32-1.32c-1.094-1.094-2.867-1.094-3.959 0l-9.899 9.899-9.9-9.901c-1.094-1.094-2.867-1.094-3.959 0l-1.322 1.32c-1.094 1.094-1.094 2.867 0 3.96l9.901 9.901-9.899 9.899c-1.094 1.094-1.094 2.867 0 3.959l1.32 1.32c1.094 1.094 2.867 1.094 3.959 0l9.9-9.899 9.899 9.899c1.094 1.094 2.867 1.094 3.959 0l1.32-1.32c1.094-1.094 1.094-2.867 0-3.959l-9.899-9.899z"></path>
</symbol>
<symbol id="code-solid" viewBox="0 0 40 32">
<path d="M17.431 31.969l-3.813-1.106c-0.4-0.113-0.625-0.531-0.512-0.931l8.531-29.387c0.113-0.4 0.531-0.625 0.931-0.512l3.813 1.106c0.4 0.113 0.625 0.531 0.512 0.931l-8.531 29.387c-0.119 0.4-0.531 0.631-0.931 0.512zM10.306 24.956l2.719-2.9c0.287-0.306 0.269-0.794-0.050-1.075l-5.662-4.981 5.662-4.981c0.319-0.281 0.344-0.769 0.050-1.075l-2.719-2.9c-0.281-0.3-0.756-0.319-1.063-0.031l-9.006 8.438c-0.319 0.294-0.319 0.8 0 1.094l9.006 8.444c0.306 0.288 0.781 0.275 1.063-0.031zM30.756 24.994l9.006-8.444c0.319-0.294 0.319-0.8 0-1.094l-9.006-8.45c-0.3-0.281-0.775-0.269-1.063 0.031l-2.719 2.9c-0.288 0.306-0.269 0.794 0.050 1.075l5.662 4.987-5.663 4.981c-0.319 0.281-0.344 0.769-0.050 1.075l2.719 2.9c0.281 0.306 0.756 0.319 1.063 0.038z"></path>
</symbol>
<symbol id="Comment" viewBox="0 0 35 32">
<path d="M31.254 0.267h-27.594c-2.020 0-3.659 1.639-3.659 3.66v18.081c0 2.020 1.639 3.659 3.659 3.659h20.963l4.027 4.076c0.7 0.71 1.644 1.085 2.602 1.085 0.469 0 0.94-0.090 1.389-0.274 1.372-0.563 2.267-1.899 2.267-3.386v-23.24c0.002-2.021-1.636-3.66-3.655-3.66zM22.982 18.57c0.116 0.679-0.163 1.361-0.716 1.764-0.315 0.228-0.685 0.346-1.059 0.346-0.289 0-0.575-0.069-0.838-0.208l-2.912-1.53-2.911 1.53c-0.608 0.319-1.343 0.265-1.898-0.137s-0.833-1.085-0.717-1.762l0.038-0.225 0.518-3.016-2.355-2.296c-0.491-0.479-0.668-1.195-0.456-1.848s0.776-1.128 1.456-1.227l3.254-0.473 1.456-2.948c0.304-0.616 0.93-1.005 1.617-1.005 0.685 0 1.313 0.389 1.617 1.005l1.456 2.948 3.255 0.473c0.679 0.098 1.242 0.574 1.454 1.227s0.037 1.369-0.456 1.848l-2.354 2.296 0.518 3.016 0.036 0.222z"></path>
</symbol>
<symbol id="Comment2" viewBox="0 0 38 32">
<path d="M24.936 1.012h-11.472c-3.252 0.003-6.369 1.296-8.668 3.596s-3.592 5.417-3.596 8.668v1.872c0.003 3.252 1.296 6.369 3.596 8.668s5.417 3.592 8.668 3.596h4.536l2.292 3.6c0.162 0.261 0.388 0.477 0.657 0.626s0.572 0.227 0.879 0.226c0.31-0.003 0.613-0.085 0.882-0.238s0.494-0.373 0.654-0.638l2.208-3.6c3.097-0.063 6.048-1.334 8.22-3.543s3.396-5.179 3.408-8.277v-2.292c-0.003-3.252-1.296-6.369-3.596-8.668s-5.417-3.592-8.668-3.596zM13.2 16.156h12c0.318 0 0.624 0.126 0.848 0.351s0.352 0.53 0.352 0.849-0.126 0.623-0.352 0.848c-0.225 0.225-0.53 0.352-0.848 0.352h-12c-0.318 0-0.623-0.127-0.849-0.352s-0.351-0.53-0.351-0.848 0.126-0.624 0.351-0.849c0.225-0.225 0.53-0.351 0.849-0.351zM12 10.708c0-0.318 0.126-0.623 0.351-0.849s0.53-0.351 0.849-0.351h12c0.318 0 0.624 0.126 0.848 0.351s0.352 0.53 0.352 0.849-0.126 0.623-0.352 0.849c-0.225 0.225-0.53 0.351-0.848 0.351h-12c-0.318 0-0.623-0.126-0.849-0.351s-0.351-0.53-0.351-0.849z"></path>
</symbol>
<symbol id="Dislike" viewBox="0 0 32 32">
<path d="M6.952 22.275h5.514l-1.083 3.253c-0.336 1.016-0.329 2.113 0.018 3.125s1.016 1.882 1.905 2.477c0.665 0.437 1.474 0.599 2.256 0.452s1.476-0.593 1.937-1.242l5.889-8.408c0.232 0.221 0.539 0.344 0.859 0.344h5.020c0.333 0 0.652-0.132 0.887-0.368s0.368-0.555 0.368-0.887v-15.059c0-0.333-0.132-0.652-0.368-0.887s-0.555-0.368-0.887-0.368h-5.020c-0.333 0-0.652 0.132-0.887 0.368s-0.367 0.555-0.367 0.887v0.166l-1.813-1.21c-0.206-0.137-0.449-0.21-0.696-0.211h-11.294c-0.233-0-0.462 0.065-0.66 0.187s-0.359 0.298-0.463 0.507l-4.59 9.182c-0.368 0.738-0.56 1.552-0.561 2.377v1.277c0.001 1.071 0.427 2.097 1.184 2.854s1.783 1.183 2.854 1.184zM25.502 7.216h2.51v12.549h-2.51v-12.549zM5.423 16.959c0.001-0.436 0.102-0.865 0.296-1.255l4.244-8.488h10.142l2.886 1.926v8.973l-7.551 10.786c-0.081 0.116-0.204 0.196-0.343 0.223s-0.283-0.003-0.401-0.082c-0.432-0.289-0.757-0.712-0.925-1.203s-0.172-1.025-0.008-1.518l1.631-4.904c0.063-0.188 0.080-0.389 0.050-0.585s-0.106-0.383-0.222-0.544c-0.116-0.161-0.268-0.293-0.445-0.383s-0.372-0.139-0.571-0.139h-7.256c-0.405-0-0.794-0.162-1.080-0.448s-0.448-0.675-0.448-1.080v-1.277z"></path>
</symbol>
<symbol id="Dotted" viewBox="0 0 10 32">
<path d="M0.938 16c0 2.036 1.657 3.692 3.692 3.692s3.692-1.657 3.692-3.692c0-2.036-1.657-3.692-3.692-3.692s-3.692 1.657-3.692 3.692z"></path>
<path d="M0.938 28.308c0 2.036 1.657 3.692 3.692 3.692s3.692-1.657 3.692-3.692c0-2.036-1.657-3.692-3.692-3.692s-3.692 1.657-3.692 3.692z"></path>
<path d="M0.938 3.692c0 2.036 1.657 3.692 3.692 3.692s3.692-1.657 3.692-3.692c0-2.036-1.657-3.692-3.692-3.692s-3.692 1.657-3.692 3.692z"></path>
</symbol>
<symbol id="Down2" viewBox="0 0 32 32">
<path d="M16.658 30.517l9.846-8.861c0.209-0.189 0.327-0.453 0.327-0.733v-5.907c0-0.388-0.228-0.74-0.583-0.9-0.356-0.158-0.772-0.093-1.059 0.167l-9.188 8.268-9.186-8.268c-0.289-0.26-0.705-0.327-1.059-0.167-0.356 0.159-0.585 0.512-0.585 0.9v5.907c0 0.28 0.12 0.543 0.325 0.733l9.846 8.861c0.374 0.337 0.945 0.337 1.317 0z"></path>
<path d="M16.658 17.717l9.846-8.861c0.209-0.189 0.327-0.453 0.327-0.733v-5.907c0-0.388-0.228-0.74-0.583-0.9-0.356-0.158-0.772-0.093-1.059 0.167l-9.188 8.268-9.186-8.268c-0.289-0.26-0.705-0.327-1.059-0.167-0.356 0.159-0.585 0.512-0.585 0.9v5.907c0 0.28 0.12 0.543 0.325 0.732l9.846 8.861c0.374 0.337 0.945 0.337 1.317 0z"></path>
</symbol>
<symbol id="Down3" viewBox="0 0 38 32">
<path d="M22.766 28.294l14.602-21.33c0.675-0.985 1.032-1.978 1.032-2.803 0-1.595-1.28-2.582-3.423-2.582h-31.56c-2.14 0-3.418 0.985-3.418 2.577 0 0.826 0.357 1.803 1.034 2.79l14.602 21.34c0.941 1.372 2.206 2.132 3.566 2.132s2.624-0.751 3.564-2.125z"></path>
</symbol>
<symbol id="Face" viewBox="0 0 17 32">
<path d="M4.132 6.951v4.067h-3.193v4.973h3.193v14.779h6.555v-14.777h4.4c0 0 0.412-2.384 0.612-4.992h-4.985v-3.401c0-0.508 0.713-1.191 1.421-1.191h3.574v-5.177h-4.858c-6.881 0-6.718 4.977-6.718 5.72z"></path>
</symbol>
<symbol id="Game" viewBox="0 0 40 32">
<path d="M32.854 13.848c1.355 0.036 2.425 1.192 2.39 2.583-0.036 1.387-1.164 2.484-2.519 2.446-1.355-0.036-2.426-1.192-2.391-2.58s1.163-2.484 2.52-2.449v0zM10.435 7.639c0.881 0 1.505 0.638 1.505 1.432v2.402h2.345c0.773 0 1.396 0.638 1.396 1.541 0 0.9-0.623 1.538-1.396 1.538h-2.345v2.405c0 0.79-0.623 1.428-1.505 1.428s-1.504-0.638-1.504-1.428v-2.405h-2.346c-0.772 0-1.395-0.638-1.395-1.538 0-0.903 0.623-1.541 1.395-1.541h2.346v-2.402c0-0.794 0.623-1.432 1.504-1.432zM28.769 7.149c1.356 0.038 2.426 1.192 2.392 2.582-0.037 1.388-1.167 2.485-2.522 2.446-1.355-0.035-2.427-1.192-2.391-2.579 0.037-1.389 1.163-2.485 2.521-2.449v0zM9.979 0.309c-5.009 0-7.712 3.223-8.136 7.175l-1.807 16.893c-0.421 3.949 2.903 6.248 5.424 6.248 4.953 0 8.969-8.262 11.648-8.262h6.191c2.679 0 6.692 8.262 11.648 8.262 2.522 0 5.938-2.31 5.422-6.248l-1.808-16.893c-0.517-3.937-3.127-7.175-8.133-7.175-3.678 0-4.471 2.046-8.545 2.046h-3.358c-4.074 0-4.87-2.046-8.546-2.046v0z"></path>
</symbol>
<symbol id="Google" viewBox="0 0 32 32">
<path d="M28.050 14.309h-10.99c-0.485 0-0.877 0.392-0.877 0.877v3.513c0 0.485 0.392 0.877 0.877 0.877h6.19c-0.675 1.76-1.944 3.231-3.554 4.165l2.637 4.569c4.229-2.446 6.733-6.744 6.733-11.55 0-0.687-0.052-1.177-0.15-1.725-0.081-0.421-0.444-0.727-0.865-0.727z"></path>
<path d="M15.595 24.85c-3.029 0-5.671-1.656-7.090-4.102l-4.569 2.631c2.325 4.033 6.681 6.744 11.66 6.744 2.446 0 4.748-0.657 6.738-1.806v-0.006l-2.637-4.569c-1.212 0.704-2.608 1.108-4.102 1.108z"></path>
<path d="M22.327 28.317v-0.006l-2.637-4.569c-1.206 0.698-2.602 1.108-4.096 1.108v5.273c2.446 0 4.748-0.658 6.733-1.806z"></path>
<path d="M7.396 16.652c0-1.494 0.41-2.89 1.108-4.096l-4.569-2.631c-1.154 1.979-1.812 4.275-1.812 6.727s0.658 4.748 1.812 6.727l4.569-2.631c-0.704-1.206-1.108-2.602-1.108-4.096z"></path>
<path d="M15.595 8.454c1.973 0 3.79 0.704 5.204 1.869 0.352 0.288 0.86 0.265 1.177-0.052l2.487-2.487c0.363-0.363 0.335-0.958-0.052-1.292-2.371-2.065-5.458-3.312-8.815-3.312-4.979 0-9.335 2.712-11.66 6.744l4.569 2.631c1.419-2.446 4.062-4.102 7.090-4.102z"></path>
<path d="M20.798 10.323c0.352 0.288 0.86 0.265 1.177-0.052l2.487-2.487c0.363-0.363 0.335-0.958-0.052-1.292-2.371-2.065-5.458-3.312-8.815-3.312v5.273c1.973 0 3.79 0.698 5.204 1.869z"></path>
</symbol>
<symbol id="heart-solid" viewBox="0 0 32 32">
<path d="M0 11.931v-0.363c0-4.369 3.158-8.095 7.463-8.813 2.794-0.474 5.75 0.454 7.787 2.495l0.75 0.749 0.694-0.749c2.094-2.041 4.994-2.969 7.844-2.495 4.306 0.718 7.462 4.444 7.462 8.813v0.363c0 2.594-1.075 5.075-2.975 6.844l-11.294 10.544c-0.469 0.438-1.087 0.681-1.731 0.681s-1.262-0.244-1.731-0.681l-11.294-10.544c-1.897-1.769-2.974-4.25-2.974-6.844h-0z"></path>
</symbol>
<symbol id="Help" viewBox="0 0 32 32">
<path d="M16.847 10.169c1.366 0 2.187 0.729 2.187 1.958 0 2.233-3.986 2.848-3.986 5.558 0 0.729 0.477 1.525 1.457 1.525 1.503 0 1.321-1.116 1.868-1.914 0.728-1.070 4.123-2.209 4.123-5.17 0-3.21-2.869-4.556-5.785-4.556-2.778 0-5.33 1.982-5.33 4.215 0 0.911 0.684 1.389 1.481 1.389 2.208 0.001 1.070-3.006 3.984-3.006z"></path>
<path d="M18.464 22.56c0-1.026-0.843-1.868-1.868-1.868s-1.868 0.844-1.868 1.868c0 1.026 0.843 1.868 1.868 1.868s1.868-0.842 1.868-1.868z"></path>
<path d="M31.708 16c0-8.144-6.626-14.769-14.769-14.769s-14.769 6.626-14.769 14.769 6.626 14.769 14.769 14.769c8.143 0 14.769-6.625 14.769-14.769zM3.641 16c0-7.332 5.965-13.297 13.297-13.297s13.297 5.965 13.297 13.297c0 7.332-5.965 13.297-13.297 13.297s-13.297-5.965-13.297-13.297z"></path>
</symbol>
<symbol id="Home" viewBox="0 0 32 32">
<path d="M21.909 31.85h4c1.2 0 2-0.8 2-2v-14h2c0.6 0 1.2-0.2 1.6-0.6 0.8-0.8 0.6-2-0.2-2.8l-14-12c-0.8-0.6-1.8-0.6-2.6 0l-14 12c-0.8 0.8-1 2-0.2 2.8 0.2 0.4 0.8 0.6 1.4 0.6h2v14c0 1.2 0.8 2 2 2h4c1.2 0 2-0.8 2-2v-6h8v6c0 1.2 0.8 2 2 2z"></path>
</symbol>
<symbol id="Hot" viewBox="0 0 26 32">
<path d="M21.831 10.245c-0.213-0.207-0.512-0.301-0.805-0.253s-0.546 0.232-0.682 0.496c-0.468 0.909-1.062 1.744-1.761 2.482 0.070-0.533 0.105-1.070 0.105-1.608 0-1.032-0.138-2.094-0.411-3.157-0.897-3.491-3.251-6.444-6.456-8.101-0.279-0.144-0.612-0.139-0.886 0.013s-0.454 0.433-0.479 0.746c-0.25 3.173-1.884 6.059-4.486 7.921-0.034 0.025-0.069 0.050-0.103 0.075-0.071 0.052-0.138 0.101-0.2 0.142-0.010 0.007-0.019 0.013-0.029 0.020-1.637 1.172-2.987 2.734-3.905 4.517-0.933 1.814-1.406 3.761-1.406 5.787 0 1.032 0.138 2.094 0.411 3.157 1.44 5.604 6.482 9.517 12.263 9.517 6.988 0 12.673-5.686 12.673-12.674 0-3.446-1.365-6.671-3.843-9.081z"></path>
</symbol>
<symbol id="In" viewBox="0 0 35 32">
<path d="M32.215 30.827v-0.001h0.008v-11.266c0-5.512-1.187-9.757-7.63-9.757-3.098 0-5.176 1.7-6.025 3.311h-0.089v-2.797h-6.109v20.509h6.362v-10.156c0-2.674 0.507-5.26 3.818-5.26 3.263 0 3.311 3.052 3.311 5.431v9.986h6.355z"></path>
<path d="M2.010 10.318h6.369v20.51h-6.369v-20.509z"></path>
<path d="M5.192 0.107c-2.037 0-3.689 1.652-3.689 3.689s1.652 3.724 3.689 3.724c2.037 0 3.689-1.687 3.689-3.724-0.002-2.037-1.654-3.689-3.689-3.689z"></path>
</symbol>
<symbol id="lang" viewBox="0 0 32 32">
<path d="M16 0c-8.847 0-16 7.153-16 16s7.153 16 16 16c8.848 0 16-7.152 16-16s-7.152-16-16-16zM11.171 2.179c-0.844 1.184-1.564 2.434-2.166 3.743h-3.632c1.584-1.675 3.566-2.971 5.798-3.743zM4.227 7.283h4.201c-0.988 2.546-1.531 5.261-1.61 8.036h-5.438c0.137-3.004 1.171-5.772 2.847-8.036zM4.227 24.717c-1.675-2.264-2.709-5.032-2.847-8.036h5.438c0.079 2.775 0.641 5.49 1.636 8.036h-4.227zM5.373 26.078h3.665c0.609 1.309 1.328 2.572 2.16 3.756-2.238-0.772-4.234-2.075-5.824-3.756zM15.319 30.626c-0.681-0.033-1.355-0.111-2.009-0.229-1.086-1.341-2.016-2.788-2.768-4.312h4.777v4.541zM15.319 24.717h-5.399c-1.054-2.539-1.656-5.255-1.741-8.036h7.139v8.036zM15.319 15.319h-7.139c0.085-2.775 0.681-5.497 1.728-8.036h5.412v8.036zM15.326 5.922h-4.797c0.759-1.538 1.688-2.984 2.781-4.312 0.654-0.124 1.328-0.196 2.016-0.229v4.542zM27.773 7.283c1.675 2.264 2.716 5.026 2.847 8.036h-5.438c-0.079-2.775-0.641-5.49-1.636-8.036h4.227zM26.627 5.922h-3.665c-0.609-1.309-1.328-2.572-2.166-3.756 2.245 0.772 4.241 2.074 5.831 3.756zM16.681 1.381c0.681 0.033 1.355 0.111 2.009 0.229 1.086 1.342 2.016 2.788 2.768 4.312h-4.777v-4.542zM16.681 7.283h5.399c1.054 2.533 1.656 5.255 1.741 8.036h-7.14v-8.036zM16.681 16.681h7.14c-0.085 2.775-0.681 5.497-1.728 8.036h-5.412v-8.036zM16.674 30.619v-4.541h4.797c-0.759 1.538-1.688 2.984-2.781 4.312-0.654 0.124-1.328 0.196-2.016 0.229zM20.797 29.834c0.831-1.184 1.551-2.448 2.153-3.756h3.684c-1.597 1.682-3.593 2.984-5.837 3.756zM23.526 24.717c0.982-2.546 1.538-5.261 1.649-8.036h5.451c-0.138 3.004-1.171 5.772-2.847 8.036h-4.254z"></path>
</symbol>
<symbol id="Like" viewBox="0 0 32 32">
<path d="M26.483 10.301h-5.514l1.083-3.253c0.336-1.016 0.329-2.113-0.018-3.125s-1.016-1.882-1.905-2.477c-0.665-0.437-1.474-0.599-2.256-0.452s-1.476 0.593-1.937 1.242l-5.889 8.408c-0.232-0.221-0.54-0.344-0.86-0.344h-5.020c-0.333 0-0.652 0.132-0.887 0.368s-0.368 0.555-0.368 0.887v15.059c0 0.333 0.132 0.652 0.368 0.887s0.555 0.368 0.887 0.368h5.020c0.333 0 0.652-0.132 0.887-0.368s0.368-0.555 0.368-0.887v-0.166l1.813 1.21c0.206 0.137 0.449 0.21 0.696 0.211h11.294c0.233 0 0.462-0.065 0.66-0.187s0.359-0.298 0.463-0.507l4.59-9.182c0.368-0.738 0.56-1.552 0.561-2.377v-1.277c-0.001-1.071-0.427-2.097-1.184-2.854s-1.784-1.183-2.854-1.184zM7.933 25.359h-2.51v-12.549h2.51v12.549zM28.012 15.616c-0.001 0.436-0.102 0.865-0.296 1.255l-4.244 8.488h-10.142l-2.886-1.926v-8.973l7.551-10.786c0.081-0.116 0.204-0.196 0.343-0.223s0.283 0.003 0.401 0.082c0.432 0.289 0.757 0.712 0.925 1.203s0.171 1.024 0.008 1.518l-1.631 4.904c-0.063 0.188-0.080 0.389-0.050 0.585s0.106 0.383 0.222 0.544c0.116 0.161 0.268 0.293 0.445 0.383s0.372 0.138 0.571 0.139h7.256c0.405 0 0.794 0.162 1.080 0.448s0.448 0.675 0.448 1.080v1.277z"></path>
</symbol>
<symbol id="Next" viewBox="0 0 29 32">
<path d="M26.833 12.821l-21.082-12.073c-3.065-1.756-5.551-0.315-5.551 3.217v24.069c0 3.533 2.485 4.973 5.551 3.217l21.082-12.073c3.065-1.756 3.065-4.602 0-6.358z"></path>
</symbol>
<symbol id="Next2" viewBox="0 0 24 32">
<path d="M20.889 14.751l-14.24-14.24c-0.329-0.33-0.769-0.511-1.238-0.511s-0.908 0.182-1.238 0.511l-1.049 1.048c-0.682 0.683-0.682 1.794 0 2.476l11.958 11.958-11.971 11.971c-0.329 0.33-0.511 0.769-0.511 1.238s0.182 0.909 0.511 1.238l1.049 1.048c0.33 0.33 0.769 0.511 1.238 0.511s0.909-0.182 1.238-0.511l14.254-14.253c0.33-0.331 0.511-0.772 0.51-1.241 0.001-0.471-0.18-0.912-0.51-1.243z"></path>
</symbol>
<symbol id="P" viewBox="0 0 29 32">
<path d="M18.539 32l-18.165-17.231 15.57-14.769 2.595 2.462 2.595-2.462 7.785 7.385-2.595 2.461 2.595 2.462-10.38 9.846 5.19 4.923-5.19 4.923zM15.944 19.692l7.785-7.385-7.785-7.385-7.785 7.385 7.785 7.385z"></path>
</symbol>
<symbol id="Play" viewBox="0 0 29 32">
<path d="M5.176 0.706c-2.859-1.655-5.176-0.299-5.176 3.026v24.535c0 3.328 2.318 4.682 5.176 3.029l21.25-12.299c2.86-1.655 2.86-4.338 0-5.993l-21.25-12.298z"></path>
</symbol>
<symbol id="Prev" viewBox="0 0 29 32">
<path d="M2.5 12.821l21.082-12.073c3.065-1.756 5.551-0.315 5.551 3.217v24.069c0 3.533-2.485 4.973-5.551 3.217l-21.082-12.073c-3.065-1.756-3.065-4.602 0-6.358z"></path>
</symbol>
<symbol id="Refresh" viewBox="0 0 35 32">
<path d="M6.004 0.621c-0.918 0.005-1.807 0.641-2.147 1.655l-2.725 8.102c-0.847 2.516 0.216 4.437 2.883 4.971 2.787 0.562 5.573 1.117 8.36 1.676 1.864 0.374 3.555-1.346 2.395-3.357l-1.135-1.966 1.524-0.917c5.218-3.144 11.449 0.983 10.738 7.101-0.786 6.77-8.978 9.144-13.373 4.306-2.962-3.262-8.151 2.015-4.72 5.258 10.175 9.617 25.426 2.652 26.488-9.403 0.589-6.688-3.127-12.622-8.533-15.324-2.702-1.35-5.864-1.846-9.064-1.382-2.502 0.362-4.76 1.314-7.369 2.9l-1.367-2.367c-0.508-0.879-1.242-1.258-1.955-1.253v0z"></path>
</symbol>
<symbol id="Reply" viewBox="0 0 32 32">
<path stroke-linejoin="round" stroke-linecap="round" stroke-miterlimit="4" stroke-width="2.8235" d="M20.482 18.51l6.274-6.274-6.274-6.274"></path>
<path stroke-linejoin="round" stroke-linecap="round" stroke-miterlimit="4" stroke-width="2.8235" d="M6.678 26.039v-8.784c0-1.331 0.529-2.608 1.47-3.549s2.218-1.47 3.549-1.47h15.059"></path>
</symbol>
<symbol id="search" viewBox="0 0 30 32">
<path d="M16.946 27.29c-7.274 0-13.172-5.897-13.172-13.172s5.897-13.172 13.172-13.172c7.274 0 13.172 5.897 13.172 13.172s-5.897 13.172-13.172 13.172zM16.946 4.71c-5.196 0-9.408 4.212-9.408 9.408s4.212 9.408 9.408 9.408c5.196 0 9.408-4.212 9.408-9.408s-4.212-9.408-9.408-9.408z"></path>
<path d="M1.893 31.053c-0.5 0.003-0.981-0.194-1.336-0.546-0.738-0.732-0.743-1.923-0.011-2.661 0.004-0.004 0.007-0.007 0.011-0.011l7.075-7.075c0.764-0.738 1.981-0.717 2.719 0.047s0.717 1.981-0.047 2.719l-7.075 6.981c-0.355 0.352-0.836 0.549-1.336 0.546v0z"></path>
</symbol>
<symbol id="Send" viewBox="0 0 30 32">
<path d="M28.116 14.728l-25.6-12.8c-0.513-0.258-1.133-0.181-1.568 0.197s-0.599 0.979-0.417 1.525l3.643 10.928h10.506c0.786 0 1.422 0.636 1.422 1.422s-0.636 1.422-1.422 1.422h-10.506l-3.643 10.928c-0.182 0.546-0.018 1.147 0.417 1.525 0.264 0.229 0.597 0.347 0.932 0.347 0.217 0 0.435-0.050 0.636-0.15l25.6-12.8c0.482-0.242 0.786-0.733 0.786-1.272s-0.304-1.031-0.786-1.272z"></path>
</symbol>
<symbol id="Share" viewBox="0 0 32 32">
<path d="M24 16c-2.4 0-4.547 1.061-6.013 2.734l-5.078-3.125c0.26-0.714 0.424-1.473 0.424-2.276 0-0.525-0.075-1.030-0.19-1.521l6.75-3.115c0.978 1.193 2.444 1.969 4.107 1.969 2.944 0 5.333-2.388 5.333-5.333s-2.39-5.333-5.334-5.333c-2.946 0-5.333 2.388-5.333 5.333 0 0.325 0.040 0.639 0.095 0.949l-6.742 3.112c-1.215-1.647-3.151-2.728-5.353-2.728-3.682 0-6.667 2.984-6.667 6.667s2.984 6.667 6.667 6.667c1.916 0 3.633-0.82 4.849-2.117l5.070 3.12c-0.375 0.927-0.586 1.936-0.586 2.997 0 4.419 3.581 8 8 8 4.417 0 8-3.581 8-8s-3.583-8-8-8z"></path>
</symbol>
<symbol id="Share2" viewBox="0 0 36 32">
<path d="M34.036 10.401l-7.727-7.727c-0.637-0.638-1.284-0.961-1.922-0.961-0.876 0-1.898 0.666-1.898 2.543v2.63c-5.614 0.245-10.856 2.547-14.854 6.545-4.235 4.235-6.567 9.865-6.568 15.854 0 0.43 0.275 0.813 0.683 0.949 0.104 0.035 0.211 0.051 0.317 0.051 0.308 0 0.607-0.143 0.8-0.399 4.721-6.284 11.829-9.998 19.623-10.292v2.59c0 1.877 1.022 2.543 1.898 2.543h0c0.638 0 1.284-0.323 1.922-0.961l7.726-7.727c0.751-0.751 1.165-1.752 1.165-2.82s-0.413-2.069-1.164-2.82z"></path>
</symbol>
<symbol id="Star" viewBox="0 0 32 32">
<path d="M30.98 12.494c-0.197-0.61-0.738-1.043-1.378-1.101l-8.693-0.789-3.437-8.045c-0.253-0.59-0.831-0.971-1.472-0.971s-1.219 0.382-1.472 0.973l-3.437 8.044-8.694 0.789c-0.639 0.059-1.178 0.491-1.377 1.101s-0.015 1.279 0.468 1.7l6.571 5.763-1.938 8.535c-0.142 0.628 0.102 1.276 0.622 1.653 0.28 0.202 0.607 0.305 0.938 0.305 0.285 0 0.567-0.077 0.821-0.228l7.498-4.482 7.496 4.482c0.549 0.33 1.24 0.3 1.759-0.077 0.521-0.378 0.764-1.026 0.622-1.653l-1.938-8.535 6.571-5.761c0.483-0.423 0.668-1.091 0.469-1.702v0z"></path>
</symbol>
<symbol id="Twitter" viewBox="0 0 39 32">
<path d="M12.37 29.376c2.682 0.088 5.355-0.354 7.861-1.3s4.793-2.378 6.728-4.209 3.476-4.027 4.535-6.456c1.058-2.429 1.612-5.042 1.627-7.684 1.229-1.498 2.142-3.223 2.684-5.073 0.041-0.146 0.037-0.301-0.009-0.445s-0.135-0.272-0.254-0.369c-0.119-0.096-0.263-0.157-0.416-0.174s-0.308 0.009-0.445 0.077c-0.643 0.305-1.367 0.403-2.070 0.282s-1.349-0.458-1.848-0.96c-0.637-0.687-1.407-1.241-2.265-1.629s-1.787-0.603-2.73-0.631c-0.944-0.028-1.884 0.13-2.764 0.466s-1.683 0.843-2.361 1.49c-0.928 0.885-1.608 1.992-1.974 3.213s-0.404 2.514-0.112 3.754c-6.076 0.357-10.248-2.483-13.585-6.377-0.1-0.112-0.231-0.192-0.377-0.232s-0.301-0.037-0.445 0.009c-0.144 0.045-0.272 0.131-0.368 0.247s-0.155 0.256-0.171 0.405c-0.636 3.473-0.177 7.055 1.314 10.264s3.944 5.892 7.029 7.688c-2.068 2.336-4.973 3.795-8.108 4.073-0.168 0.027-0.323 0.106-0.443 0.224s-0.2 0.271-0.228 0.436-0.003 0.335 0.072 0.486c0.075 0.151 0.196 0.274 0.346 0.354 2.727 1.342 5.73 2.051 8.779 2.072z"></path>
</symbol>
<symbol id="W" viewBox="0 0 37 32">
<path d="M19.688 11.344v0l2.268 0.033q0.504 0 0.782 0.196v0 0q0.278 0.196 0.408 0.652v0l0.994 3.294q0.033 0.13 0.115 0.178v0 0q0.082 0.048 0.163 0v0 0q0.082-0.048 0.115-0.163v0l1.371-4.436q0.097-0.326 0.301-0.456v0 0q0.204-0.13 0.645-0.13v0h1.842q0.311 0 0.441 0.293v0 0q0.064 0.13 0.064 0.293v0 0q0 0.163-0.301 0.922v0 0q-0.301 0.757-1.345 3.969v0 0q-1.045 3.213-1.809 4.876v0 0q-0.652 1.368-2.527 1.368v0 0q-1.011 0-1.908-0.464v0 0q-0.897-0.464-1.2-1.157v0 0q-0.301-0.693-0.797-2.031v0 0q-0.497-1.338-0.693-1.86v0 0q-0.848 2.675-1.516 4.125v0 0q-0.311 0.652-1.134 1.011v0 0q-0.823 0.359-1.819 0.359v0 0q-2.38 0-3.162-1.761v0 0q-2.497-5.674-3.394-8.334v0 0q-0.13-0.423-0.13-0.716v0 0q0-0.915 0.864-0.915v0l4.665-0.048q0.604 0 0.897 0.211v0 0q0.293 0.214 0.471 0.815v0l1.141 4.013q0.033 0.145 0.115 0.196v0 0q0.181 0.097 0.278-0.181v0l1.093-3.325q0.245-0.785 1.011-0.8v0 0q1.009-0.033 1.694-0.033z"></path>
</symbol>
<symbol id="Walk" viewBox="0 0 32 32">
<path d="M9.374 10.701l-5.333-5.333c-2.505 2.816-4.042 6.575-4.042 10.632s1.536 7.816 4.042 10.632l5.333-5.333c-1.155-1.444-1.875-3.311-1.875-5.3s0.72-3.856 1.875-5.3z"></path>
<path d="M27.958 5.368l-5.333 5.333c1.155 1.444 1.875 3.311 1.875 5.3s-0.72 3.856-1.875 5.3l5.333 5.333c2.505-2.816 4.042-6.575 4.042-10.632s-1.536-7.816-4.042-10.632z"></path>
<path d="M21.3 22.626c-1.444 1.155-3.311 1.875-5.3 1.875s-3.856-0.72-5.3-1.875l-5.333 5.333c2.816 2.505 6.575 4.042 10.632 4.042s7.816-1.536 10.632-4.042l-5.333-5.333z"></path>
<path d="M16 0c-4.057 0-7.816 1.536-10.632 4.042l5.333 5.333c1.444-1.155 3.311-1.875 5.3-1.875s3.856 0.72 5.3 1.875l5.333-5.333c-2.816-2.505-6.575-4.042-10.632-4.042z"></path>
<path d="M26.375 0c-0.61 0-1.198 0.129-1.764 0.317 0.86 0.472 1.669 1.023 2.435 1.625 1.53 0.278 2.733 1.482 3.011 3.011 0.603 0.766 1.153 1.575 1.625 2.435 0.188-0.567 0.317-1.155 0.317-1.764 0-3.102-2.523-5.625-5.625-5.625z"></path>
<path d="M31.683 24.611c-0.472 0.86-1.023 1.669-1.625 2.435-0.278 1.53-1.482 2.733-3.011 3.011-0.766 0.603-1.576 1.153-2.435 1.625 0.567 0.188 1.154 0.317 1.764 0.317 3.102 0 5.625-2.523 5.625-5.625 0-0.61-0.129-1.198-0.317-1.764z"></path>
<path d="M5.625 0c-3.102 0-5.625 2.523-5.625 5.625 0 0.61 0.129 1.198 0.317 1.764 0.472-0.86 1.023-1.669 1.625-2.435 0.278-1.53 1.482-2.733 3.011-3.011 0.766-0.603 1.575-1.153 2.435-1.625-0.567-0.188-1.155-0.317-1.764-0.317z"></path>
<path d="M4.954 30.058c-1.53-0.278-2.733-1.482-3.011-3.011-0.603-0.766-1.153-1.576-1.625-2.435-0.188 0.567-0.317 1.155-0.317 1.764 0 3.102 2.523 5.625 5.625 5.625 0.61 0 1.198-0.129 1.764-0.317-0.86-0.472-1.669-1.023-2.435-1.625z"></path>
</symbol>
<symbol id="Zoom" viewBox="0 0 32 32">
<path d="M11.325 2c0 0.53-0.211 1.039-0.586 1.414s-0.884 0.586-1.414 0.586h-5.325v5.325c0 0.53-0.211 1.039-0.586 1.414s-0.884 0.586-1.414 0.586c-0.53 0-1.039-0.211-1.414-0.586s-0.586-0.884-0.586-1.414v-7.325c0-0.53 0.211-1.039 0.586-1.414s0.884-0.586 1.414-0.586h7.325c0.53 0 1.039 0.211 1.414 0.586s0.586 0.884 0.586 1.414zM9.325 28h-5.325v-5.325c0-0.53-0.211-1.039-0.586-1.414s-0.884-0.586-1.414-0.586c-0.53 0-1.039 0.211-1.414 0.586s-0.586 0.884-0.586 1.414v7.325c0 0.53 0.211 1.039 0.586 1.414s0.884 0.586 1.414 0.586h7.325c0.53 0 1.039-0.211 1.414-0.586s0.586-0.884 0.586-1.414c0-0.53-0.211-1.039-0.586-1.414s-0.884-0.586-1.414-0.586zM30 20.675c-0.531 0-1.039 0.211-1.414 0.586s-0.586 0.884-0.586 1.414v5.325h-5.325c-0.53 0-1.039 0.211-1.414 0.586s-0.586 0.884-0.586 1.414 0.211 1.039 0.586 1.414c0.375 0.375 0.884 0.586 1.414 0.586h7.325c0.53 0 1.039-0.211 1.414-0.586s0.586-0.884 0.586-1.414v-7.325c0-0.53-0.211-1.039-0.586-1.414s-0.884-0.586-1.414-0.586zM30 0h-7.325c-0.53 0-1.039 0.211-1.414 0.586s-0.586 0.884-0.586 1.414 0.211 1.039 0.586 1.414c0.375 0.375 0.884 0.586 1.414 0.586h5.325v5.325c0 0.53 0.211 1.039 0.586 1.414s0.884 0.586 1.414 0.586c0.53 0 1.039-0.211 1.414-0.586s0.586-0.884 0.586-1.414v-7.325c0-0.53-0.211-1.039-0.586-1.414s-0.884-0.586-1.414-0.586v0z"></path>
</symbol>
</defs>
</svg>
